<?xml version="1.0" encoding="UTF-8"?>
<svg width="900" height="600" viewBox="0 0 900 600" fill="none" xmlns="http://www.w3.org/2000/svg">
  <path fill="#E5E7EB" d="M0 0h900v600H0z"/>
  <circle cx="450" cy="300" r="200" fill="#fff"/>
  <path d="M450 140c-88.366 0-160 71.634-160 160s71.634 160 160 160 160-71.634 160-160-71.634-160-160-160zm0 60c33.137 0 60 26.863 60 60s-26.863 60-60 60-60-26.863-60-60 26.863-60 60-60zm0 240c-49.668 0-93.051-25.146-118.507-63.333C354.989 406.667 401.667 390 450 390s95.011 16.667 118.507 46.667C543.051 474.854 499.668 500 450 500z" fill="#111827"/>
</svg>
